<?xml version="1.0" encoding="utf-8"?>
<!-- Generator: Adobe Illustrator 16.0.0, SVG Export Plug-In . SVG Version: 6.00 Build 0)  -->
<!DOCTYPE svg PUBLIC "-//W3C//DTD SVG 1.1 Tiny//EN" "http://www.w3.org/Graphics/SVG/1.1/DTD/svg11-tiny.dtd">
<svg version="1.1" baseProfile="tiny" id="Layer_1" xmlns="http://www.w3.org/2000/svg" xmlns:xlink="http://www.w3.org/1999/xlink"
	 x="0px" y="0px" width="612px" height="792px" viewBox="0 0 612 792" xml:space="preserve">
<path fill-rule="evenodd" d="M404.813,484.636c-10.458,1.626-19.585,3.086-28.728,4.447c-4.098,0.61-8.221,1.071-12.342,1.51
	c-8.572,0.914-17.156,1.72-25.727,2.661c-6.941,0.764-13.854,1.802-20.805,2.459c-6,0.567-11.208,2.443-15.681,6.715
	c-2.731,2.608-6.142,4.511-9.269,6.699c-3.509,2.454-7.046,2.372-11.562-0.468c4.128-4.664,8.067-9.114,12.006-13.564
	c-0.078-0.261-0.155-0.522-0.233-0.783c-7.99,4.336-15.98,8.672-24.215,13.141c-2.275-11.688,5.786-15.914,12.968-21.383
	c-3.03,0.266-6.217,0.022-9.056,0.902c-5.921,1.836-10.714,0.538-15.372-4.415c8.214-8.148,18.634-6.648,28.858-6.662
	c-4.045-2.613-7.811-5.048-11.576-7.481c0.211-0.854,0.422-1.709,0.633-2.563c2.915-0.217,6.099-1.288,8.691-0.475
	c5.636,1.77,11.423,3.802,16.337,6.98c11.191,7.239,31.889,7.6,41.342,0.166c-4.793-5.628-10.516-10.712-14.217-16.989
	c-13.541-22.968-18.134-47.545-11.063-73.752c0.365-1.354,0.599-3,0.174-4.27c-4.08-12.178-10.037-23.231-20.333-31.332
	c-1.459-1.148-4.725-2.088-5.819-1.291c-11.281,8.222-24.276,12.503-37.464,15.752c-18.542,4.567-37.218,9.758-56.117,11.345
	c-14.669,1.232-23.855,5.688-29.217,19.55c-3.298,8.525-4.714,8.495-13.561,10.791c-2.026-12.156,6.553-19.957,12.581-28.861
	c-0.299-0.488-0.599-0.978-0.898-1.466c-4.296,2.017-9.027,3.44-12.787,6.191c-5.458,3.992-8.998,10.807-17.106,10.668
	c-0.882-0.015-1.787,1.27-3.832,2.828c2.432-6.556,1.807-13.021,7.545-16.525c5.083-3.104,10.426-5.781,16.235-8.966
	c-3.966-3.124-7.84-2.378-11.635-1.44c-1.916,0.473-3.688,2.016-5.559,2.079c-4.66,0.158-9.339-0.254-15.193-0.483
	c9.962-8.886,5.004-11.37,33.906-10.585c-6.317-5.76-11.717-10.685-17.741-16.178c4.307-0.844,8.325-3.049,12.043-0.127
	c5.833,4.584,11.598,9.363,16.726,14.7c3.695,3.845,7.306,5.319,12.37,3.764c17.422-5.353,33.083-25.459,32.437-43.519
	c-0.396-11.063-2.756-22.058-4.337-33.068c-0.199-1.384-1.032-2.676-1.676-4.27c-10.693,6.456-21.473,4.616-32.104,1.282
	c-8.446-2.648-16.668-5.471-25.814-4.475c-6.512,0.71-12.141-1.485-15.458-7.842c-0.536-1.027-2.102-1.463-2.97-2.382
	c-3.248-3.434-7.301-6.521-9.271-10.6c-1.278-2.644-0.628-7.625,1.166-10.105c8.266-11.427,17.662-22.041,25.858-33.513
	c12.561-17.581,30.206-27.604,49.719-35.037c2.664-1.015,3.404-1.95,2.89-4.544c-0.906-4.57-1.747-9.163-2.339-13.781
	c-0.17-1.331,0.313-3.762,1.008-3.968c1.283-0.382,3.41,0.024,4.37,0.949c5.135,4.946,9.907,10.271,15.051,15.206
	c1.652,1.585,3.939,2.735,6.141,3.479c7.204,2.434,14.578,4.379,21.726,6.958c2.65,0.956,4.258,1.178,6.604-0.854
	c5.567-4.821,11.803-8.285,19.589-5.286c8.51,3.278,12.532,11.226,9.981,21.288c-1.174,4.63,0.13,7.153,3.523,10.119
	c8.113,7.092,15.494,14.838,25.667,19.45c12.079,5.477,24.829,7.266,37.674,9.087c24.435,3.465,48.545,8.334,71.532,17.595
	c21.62,8.711,41.249,20.236,53.309,41.256c8.481,14.783,12.666,31.036,15.039,47.784c3.862,27.256,1.255,53.764-9.128,79.419
	c-8.105,20.026-21.27,35.83-39.089,47.88c-1.356,0.917-2.701,1.853-3.891,2.67c3.38,6.874,6.981,13.263,9.749,19.994
	c9.641,23.453,7.424,46.557-2.846,69.234c-11.236,24.815-28.816,44.067-51.932,58.261c-26.706,16.398-55.979,22.676-86.959,20.081
	c-36.024-3.018-70.321-12.504-101.859-30.627c-16.695-9.595-31.216-21.73-43.525-36.765c-22.029-26.91-32.253-57.865-32.411-92.174
	c-0.041-8.961,2.293-18.134,4.793-26.848c2.542-8.86,7.026-11.146,15.985-8.622c7.281,2.052,14.638,4.714,21.121,8.532
	c13.006,7.662,25.91,15.668,35.823,27.487c7.793,9.292,14.978,19.268,23.793,27.479c9.419,8.775,19.96,16.587,30.857,23.481
	c18.273,11.561,38.467,18.346,60.275,18.545c27.793,0.254,49.083-12.229,64.837-34.797c5.607-8.032,11.454-15.897,17.182-23.846
	C402.867,487.615,403.458,486.666,404.813,484.636z"/>
</svg>
